<svg width="40" height="40" viewBox="0 0 40 40" fill="none" xmlns="http://www.w3.org/2000/svg">
<path d="M16.5501 21.65C16.7168 21.65 20.5834 21.8167 22.8834 21.25H22.9001C25.5501 20.6 29.2334 18.7333 30.1834 12.6333C30.1834 12.6333 32.3001 5 21.8001 5H12.7834C11.9668 5 11.2668 5.6 11.1334 6.4L7.3001 30.6667C7.21676 31.1667 7.61676 31.6333 8.11676 31.6333H13.8334L15.2334 22.7667C15.3334 22.1333 15.8834 21.65 16.5501 21.65Z" fill="#011F63"/>
<path d="M31.6498 13.8167C30.2998 20.0333 26.0498 23.3167 19.2831 23.3167H16.8331L15.1164 34.1833C15.0498 34.6167 15.3831 35 15.8164 35H18.9831C19.5498 35 20.0498 34.5833 20.1331 34.0167C20.2664 33.35 20.9998 28.4833 21.1498 27.65C21.2331 27.0833 21.7331 26.6667 22.2998 26.6667H23.0331C27.7331 26.6667 31.4164 24.75 32.4998 19.2333C32.9331 17 32.6998 15.1667 31.6498 13.8167Z" fill="#0296D7"/>
</svg>
