<svg width="40" height="26" viewBox="0 0 40 26" fill="none" xmlns="http://www.w3.org/2000/svg">
<path d="M1.6 0C0.71652 0 0 0.71632 0 1.6V23.52C0 24.4036 0.71688 25.12 1.6 25.12H38.4C39.2835 25.12 40 24.4037 40 23.52V1.6C40 0.71636 39.2831 0 38.4 0H1.6ZM23.89 7.48624C24.8635 7.48624 25.6437 7.70128 26.1412 7.90124L25.8012 10.04L25.5762 9.92624C25.1128 9.72628 24.5174 9.53384 23.6962 9.54748C22.7132 9.54748 22.2588 9.986 22.2588 10.3963C22.253 10.8586 22.7898 11.1634 23.6675 11.62C25.1162 12.3244 25.7857 13.1785 25.7763 14.3012C25.7568 16.3499 24.0433 17.6738 21.4038 17.6738C20.2776 17.6614 19.1927 17.423 18.6062 17.1475L18.9588 14.9375L19.2825 15.095C20.1072 15.4635 20.6412 15.6125 21.6462 15.6125C22.368 15.6125 23.1426 15.3103 23.1488 14.6488C23.1534 14.2168 22.825 13.9088 21.8475 13.425C20.895 12.9528 19.6323 12.1619 19.6463 10.7438C19.6612 8.82532 21.4088 7.48624 23.89 7.48624ZM3.53748 7.8H7.59124C8.13712 7.82064 8.57784 7.9964 8.73 8.58876L9.60376 13.0988C9.60388 13.0992 9.6036 13.1008 9.60376 13.1012L9.86624 14.4525L12.3275 7.8H14.99L11.0325 17.5375L8.37248 17.54L6.255 9.68248C7.51492 10.35 8.58756 11.1222 9.20876 12.185C9.0486 11.8487 8.83756 11.4691 8.56752 11.095C8.25304 10.6593 7.57388 10.0968 7.29 9.85748C6.3008 9.0236 4.9574 8.35012 3.50624 7.99376L3.53748 7.8ZM16.0488 7.81124H18.6525L17.0237 17.5338H14.42L16.0488 7.81124ZM30.755 7.81124H32.7275L34.7925 17.5338H32.425C32.425 17.5338 32.1901 16.4168 32.1138 16.0762C31.7416 16.0762 29.1391 16.0725 28.8462 16.0725C28.7472 16.3357 28.3088 17.5337 28.3088 17.5337H25.63L29.4188 8.61876C29.687 7.98524 30.1442 7.81124 30.755 7.81124ZM30.9488 10.4262C30.8206 10.7879 30.5976 11.3719 30.6125 11.3462C30.6125 11.3462 29.811 13.4838 29.6013 14.0388L31.7075 14.0375C31.5118 13.1104 31.316 12.1833 31.12 11.2563L30.9488 10.4263V10.4262Z" fill="#145DB8"/>
</svg>
