<svg width="59" height="59" viewBox="0 0 59 59" fill="none" xmlns="http://www.w3.org/2000/svg">
<path d="M13.0826 23.8038C19.0162 13.3044 21.983 8.05468 26.0541 6.70333C28.2938 5.95989 30.7063 5.95989 32.946 6.70333C37.0171 8.05468 39.9839 13.3044 45.9175 23.8038C51.8511 34.3032 54.8179 39.5529 53.9279 43.8304C53.4383 46.1836 52.2321 48.3181 50.482 49.9279C47.3009 52.8541 41.3673 52.8541 29.5 52.8541C17.6328 52.8541 11.6992 52.8541 8.51806 49.9279C6.76801 48.3181 5.56173 46.1836 5.07211 43.8304C4.18212 39.5529 7.14893 34.3032 13.0826 23.8038Z" fill="#FFF6E9" stroke="#FFA726" stroke-width="1.5"/>
<path fill-rule="evenodd" clip-rule="evenodd" d="M29.4803 39.3333H29.5024H29.4803Z" fill="#FFF6E9"/>
<path d="M29.4803 39.3333H29.5024" stroke="#FFA726" stroke-width="2" stroke-linecap="round" stroke-linejoin="round"/>
<path d="M29.5 31.9583L29.5 22.1249" stroke="#FFA726" stroke-width="1.5" stroke-linecap="round" stroke-linejoin="round"/>
</svg>
