<svg width="20" height="20" viewBox="0 0 20 20" fill="none" xmlns="http://www.w3.org/2000/svg">
<path d="M14.0165 12.9042C13.7124 12.7514 13.342 12.8699 13.1832 13.1708C13.0364 13.4774 13.1577 13.8452 13.4582 14.0042C14.1915 14.3792 14.6082 14.8375 14.6082 15.2792C14.6082 16.2208 12.6415 17.2708 10.0082 17.2708C7.37484 17.2708 5.39984 16.2292 5.39984 15.3125C5.39984 14.8792 5.8165 14.4125 6.54984 14.0375C6.76975 13.9493 6.9209 13.7444 6.94017 13.5082C6.95943 13.2721 6.8435 13.0453 6.64079 12.9227C6.43807 12.8 6.18342 12.8025 5.98317 12.9292C4.97142 13.3105 4.26607 14.2359 4.1665 15.3125C4.1665 17.1625 6.6665 18.5542 9.99984 18.5542C13.3332 18.5542 15.8332 17.1625 15.8332 15.3125C15.7428 14.2265 15.0359 13.2894 14.0165 12.9042Z" fill="#99A2AB"/>
<path fill-rule="evenodd" clip-rule="evenodd" d="M9.37484 15.6792V12.0792C6.63058 11.7485 4.61861 9.33775 4.78422 6.57861C4.94984 3.81947 7.23574 1.66667 9.99984 1.66667C12.7639 1.66667 15.0498 3.81947 15.2154 6.57861C15.3811 9.33775 13.3691 11.7485 10.6248 12.0792V15.6792C10.6248 16.0243 10.345 16.3042 9.99984 16.3042C9.65466 16.3042 9.37484 16.0243 9.37484 15.6792ZM13.6867 5.36761C13.068 3.87839 11.6125 2.90912 9.99984 2.91249C7.80641 2.91707 6.02942 4.69406 6.02484 6.88749C6.02147 8.50011 6.99074 9.95566 8.47996 10.5743C9.96919 11.193 11.6845 10.8528 12.8248 9.71246C13.9651 8.57216 14.3054 6.85684 13.6867 5.36761Z" fill="#99A2AB"/>
<path d="M7.99151 7.81249C8.33668 7.81249 8.61651 7.53267 8.61651 7.18749C8.61651 6.2302 9.39254 5.45416 10.3498 5.45416C10.695 5.45416 10.9748 5.17433 10.9748 4.82916C10.9748 4.48398 10.695 4.20416 10.3498 4.20416C9.5564 4.20636 8.79633 4.52368 8.23685 5.08628C7.67736 5.64889 7.36429 6.41072 7.36651 7.20416C7.3687 7.36771 7.43579 7.52369 7.553 7.63778C7.67021 7.75187 7.82795 7.81472 7.99151 7.81249Z" fill="#99A2AB"/>
</svg>
